<svg width="246" height="59" viewBox="0 0 246 59" fill="none" xmlns="http://www.w3.org/2000/svg">
<rect width="9.40402" height="43.8207" rx="4.70201" transform="matrix(0.703593 -0.710603 0.703593 0.710603 0 14.9414)" fill="white"/>
<rect width="9.40402" height="25.4026" rx="4.70201" transform="matrix(0.703593 -0.710603 0.703593 0.710603 26.3187 14.3379)" fill="white"/>
<rect width="9.40402" height="45.4084" rx="4.70201" transform="matrix(0.703593 0.710603 -0.703593 0.710603 57.4614 8.37695)" fill="white"/>
<path d="M85.391 8.11C88.427 8.11 91.5703 8.86133 94.821 10.364L92.291 15.746C89.715 14.4273 87.4303 13.768 85.437 13.768C83.1983 13.768 82.079 14.55 82.079 16.114C82.079 16.7273 82.263 17.2793 82.631 17.77C82.999 18.23 83.643 18.782 84.563 19.426L90.129 23.336C91.9996 24.624 93.3796 25.9733 94.269 27.384C95.189 28.764 95.649 30.4353 95.649 32.398C95.649 35.4033 94.6676 37.7033 92.705 39.298C90.773 40.8927 88.0896 41.69 84.655 41.69C82.631 41.69 80.653 41.414 78.721 40.862C76.8196 40.31 75.087 39.5433 73.523 38.562L76.145 33.18C79.3343 35.0507 82.2323 35.986 84.839 35.986C86.311 35.986 87.4303 35.6947 88.197 35.112C88.9943 34.4987 89.393 33.7013 89.393 32.72C89.393 31.9533 89.1323 31.2633 88.611 30.65C88.0896 30.0367 87.2616 29.316 86.127 28.488L80.929 24.762C79.2116 23.566 77.9236 22.2933 77.065 20.944C76.237 19.564 75.823 18.0153 75.823 16.298C75.823 13.7527 76.651 11.7593 78.307 10.318C79.9936 8.846 82.355 8.11 85.391 8.11ZM108.413 41.69C106.543 41.69 104.825 41.2453 103.261 40.356C101.697 39.4667 100.455 38.1787 99.5352 36.492C98.6459 34.7747 98.2012 32.7353 98.2012 30.374C98.2012 28.0127 98.6459 25.9887 99.5352 24.302C100.455 22.5847 101.697 21.2813 103.261 20.392C104.825 19.5027 106.543 19.058 108.413 19.058C110.069 19.058 111.48 19.38 112.645 20.024C113.841 20.668 114.792 21.5727 115.497 22.738H115.589V19.748H121.201V41H115.589V38.01H115.497C114.792 39.1753 113.841 40.08 112.645 40.724C111.48 41.368 110.069 41.69 108.413 41.69ZM109.839 36.354C111.557 36.354 112.937 35.802 113.979 34.698C115.053 33.594 115.589 32.1527 115.589 30.374C115.589 28.5953 115.053 27.154 113.979 26.05C112.937 24.946 111.557 24.394 109.839 24.394C108.122 24.394 106.727 24.946 105.653 26.05C104.611 27.154 104.089 28.5953 104.089 30.374C104.089 32.1527 104.611 33.594 105.653 34.698C106.727 35.802 108.122 36.354 109.839 36.354ZM126.083 19.748H131.695V22.738H131.787C132.492 21.5727 133.428 20.668 134.593 20.024C135.789 19.38 137.215 19.058 138.871 19.058C140.742 19.058 142.459 19.5027 144.023 20.392C145.587 21.2813 146.814 22.5847 147.703 24.302C148.623 25.9887 149.083 28.0127 149.083 30.374C149.083 32.7353 148.623 34.7747 147.703 36.492C146.814 38.1787 145.587 39.4667 144.023 40.356C142.459 41.2453 140.742 41.69 138.871 41.69C137.215 41.69 135.789 41.368 134.593 40.724C133.428 40.08 132.492 39.1753 131.787 38.01H131.695V50.2H126.083V19.748ZM137.445 36.354C139.162 36.354 140.542 35.802 141.585 34.698C142.658 33.594 143.195 32.1527 143.195 30.374C143.195 28.5953 142.658 27.154 141.585 26.05C140.542 24.946 139.162 24.394 137.445 24.394C135.728 24.394 134.332 24.946 133.259 26.05C132.216 27.154 131.695 28.5953 131.695 30.374C131.695 32.1527 132.216 33.594 133.259 34.698C134.332 35.802 135.728 36.354 137.445 36.354ZM158.517 41H152.859V8.8H158.517V41ZM163.73 19.748H169.388V41H163.73V19.748ZM166.582 8.478C167.686 8.478 168.59 8.846 169.296 9.582C170.032 10.2873 170.4 11.192 170.4 12.296C170.4 13.3693 170.032 14.274 169.296 15.01C168.59 15.7153 167.686 16.068 166.582 16.068C165.508 16.068 164.604 15.7153 163.868 15.01C163.162 14.274 162.81 13.3693 162.81 12.296C162.81 11.192 163.162 10.2873 163.868 9.582C164.604 8.846 165.508 8.478 166.582 8.478ZM187.113 19.058C189.566 19.058 191.513 19.7787 192.955 21.22C194.396 22.6613 195.117 24.8847 195.117 27.89V41H189.459V29.224C189.459 25.9427 188.002 24.302 185.089 24.302C183.555 24.302 182.344 24.808 181.455 25.82C180.565 26.832 180.121 28.4267 180.121 30.604V41H174.509V19.748H180.075V22.968H180.167C180.903 21.7107 181.853 20.7447 183.019 20.07C184.215 19.3953 185.579 19.058 187.113 19.058ZM210.885 50.89C208.585 50.89 205.702 50.5527 202.237 49.878L203.249 44.496C206.193 45.2013 208.661 45.554 210.655 45.554C212.587 45.554 213.951 45.14 214.749 44.312C215.546 43.5147 215.945 42.0733 215.945 39.988V38.01H215.853C214.258 40.3713 211.881 41.552 208.723 41.552C206.852 41.552 205.135 41.1227 203.571 40.264C202.037 39.3747 200.811 38.0867 199.891 36.4C199.001 34.7133 198.557 32.7047 198.557 30.374C198.557 28.0127 199.001 25.9887 199.891 24.302C200.811 22.5847 202.053 21.2813 203.617 20.392C205.181 19.5027 206.898 19.058 208.769 19.058C210.425 19.058 211.835 19.38 213.001 20.024C214.197 20.668 215.147 21.5727 215.853 22.738H215.945V19.748H221.557V41C221.526 44.588 220.591 47.1333 218.751 48.636C216.911 50.1387 214.289 50.89 210.885 50.89ZM210.195 36.354C211.912 36.354 213.292 35.802 214.335 34.698C215.408 33.594 215.945 32.1527 215.945 30.374C215.945 28.5953 215.408 27.154 214.335 26.05C213.292 24.946 211.912 24.394 210.195 24.394C208.477 24.394 207.082 24.946 206.009 26.05C204.966 27.154 204.445 28.5953 204.445 30.374C204.445 32.1527 204.966 33.594 206.009 34.698C207.082 35.802 208.477 36.354 210.195 36.354Z" fill="white"/>
</svg>
